<?xml version="1.0" standalone="no"?>
<!DOCTYPE svg PUBLIC "-//W3C//DTD SVG 20010904//EN"
 "http://www.w3.org/TR/2001/REC-SVG-20010904/DTD/svg10.dtd">

<svg version="1.0" xmlns="http://www.w3.org/2000/svg"
 width="10%" height="5%" viewBox="0 0 300 195"
 preserveAspectRatio="xMidYMid meet">
<metadata>
Created by potrace 1.10, written by Peter Selinger 2001-2011
</metadata>
<g transform="translate(0.000000,195.000000) scale(0.100000,-0.100000)"
fill="#000000" stroke="none">
<path d="M1908 579 c5 -49 4 -51 -16 -40 -47 25 -119 3 -140 -44 -40 -87 34
-186 117 -157 19 7 42 7 61 2 l30 -9 0 150 0 149 -29 0 c-28 0 -28 0 -23 -51z
m-14 -85 c25 -9 22 -90 -3 -104 -30 -16 -59 -12 -81 10 -53 53 9 123 84 94z"/>
<path d="M2007 617 c-3 -8 1 -23 8 -34 11 -14 18 -16 32 -7 28 17 23 48 -8 52
-16 2 -29 -3 -32 -11z"/>
<path d="M2337 618 c-6 -18 11 -48 27 -48 20 0 37 25 30 44 -7 19 -50 22 -57
4z"/>
<path d="M380 472 l0 -138 28 2 c25 1 27 4 24 37 -3 36 -3 37 31 37 29 0 39
-6 56 -34 15 -24 30 -35 54 -39 17 -2 34 -3 36 -1 2 2 -11 21 -28 43 -31 39
-31 40 -12 51 28 15 44 78 30 119 -16 45 -54 61 -144 61 l-75 0 0 -138z m160
69 c27 -51 -5 -91 -72 -91 l-38 0 0 55 0 55 50 0 c38 0 52 -4 60 -19z"/>
<path d="M1172 473 l3 -136 28 -1 27 -2 0 80 0 79 40 -59 c22 -33 43 -58 46
-57 4 1 24 28 45 60 l39 58 0 -80 0 -81 27 2 26 1 1 136 c1 167 -5 172 -83 57
-30 -44 -55 -80 -56 -80 -1 0 -26 36 -56 80 -33 49 -61 80 -72 80 -16 0 -17
-11 -15 -137z"/>
<path d="M688 532 c-15 -9 -33 -29 -39 -44 -14 -35 -6 -94 17 -119 24 -27 76
-42 107 -30 16 6 38 7 56 1 l31 -9 0 108 0 108 -73 1 c-50 0 -81 -4 -99 -16z
m106 -38 c25 -9 22 -90 -3 -104 -30 -16 -59 -12 -81 10 -53 53 9 123 84 94z"/>
<path d="M951 536 c-105 -57 -28 -229 84 -186 36 14 44 5 18 -22 -23 -22 -60
-27 -105 -15 -25 7 -28 5 -28 -17 0 -22 6 -26 44 -31 52 -8 105 7 132 36 16
17 20 41 22 134 l4 112 -74 1 c-42 0 -83 -5 -97 -12z m103 -42 c19 -7 22 -74
4 -92 -30 -30 -108 2 -108 45 0 40 56 65 104 47z"/>
<path d="M1551 536 c-51 -29 -68 -112 -31 -159 39 -49 133 -57 169 -13 17 21
-12 41 -38 27 -30 -16 -66 -13 -84 7 -10 10 -17 22 -17 25 0 4 36 7 80 7 89 0
93 4 65 65 -25 51 -91 70 -144 41z m91 -43 c29 -26 21 -33 -37 -33 -59 0 -68
10 -33 34 29 20 47 20 70 -1z"/>
<path d="M2010 443 l0 -108 25 0 25 0 0 108 0 107 -25 0 -25 0 0 -107z"/>
<path d="M2160 533 c-48 -33 -65 -81 -45 -129 26 -63 98 -88 154 -54 32 20 33
22 15 41 -15 17 -19 18 -34 4 -52 -47 -124 40 -74 89 18 19 65 21 82 4 8 -8
15 -8 27 2 22 18 19 28 -15 45 -38 20 -80 19 -110 -2z"/>
<path d="M2340 443 l0 -108 25 0 25 0 0 108 0 107 -25 0 -25 0 0 -107z"/>
<path d="M2442 442 c3 -106 3 -106 28 -107 24 0 25 3 30 80 5 79 5 80 33 83
46 6 57 -12 57 -92 0 -70 1 -72 25 -71 14 1 25 5 25 8 0 4 0 43 0 87 0 107
-12 119 -122 118 l-79 0 3 -106z"/>
<path d="M2720 523 c-94 -84 3 -233 116 -177 21 11 39 24 41 30 6 18 -24 25
-51 12 -31 -14 -72 -3 -86 22 -10 19 -7 20 70 20 74 0 80 2 80 20 0 29 -27 78
-49 90 -37 19 -89 12 -121 -17z m104 -29 c27 -26 18 -34 -39 -34 -52 0 -55 1
-45 19 17 33 59 41 84 15z"/>
</g>
</svg>
